<mxfile host="Electron" modified="2024-06-27T08:47:05.387Z" agent="Mozilla/5.0 (Windows NT 10.0; Win64; x64) AppleWebKit/537.36 (KHTML, like Gecko) draw.io/24.6.1 Chrome/124.0.6367.207 Electron/30.0.6 Safari/537.36" etag="JUEMimnR714zDnhrOScL" version="24.6.1" type="device">
  <diagram name="Page-1" id="6xaUxrhGuxrbpfHgNQ8b">
    <mxGraphModel dx="1434" dy="836" grid="1" gridSize="10" guides="1" tooltips="1" connect="1" arrows="1" fold="1" page="1" pageScale="1" pageWidth="827" pageHeight="1169" math="0" shadow="0">
      <root>
        <mxCell id="0" />
        <mxCell id="1" parent="0" />
        <mxCell id="dTdor2lt4ldD6Rn4XxEs-7" value="" style="rounded=1;whiteSpace=wrap;html=1;fillColor=default;fontFamily=Times New Roman;fontSize=18;fontStyle=0" parent="1" vertex="1">
          <mxGeometry x="270" y="50.5" width="342" height="529.5" as="geometry" />
        </mxCell>
        <mxCell id="dTdor2lt4ldD6Rn4XxEs-6" value="" style="rounded=1;whiteSpace=wrap;html=1;fillColor=default;fontFamily=Times New Roman;fontSize=18;fontStyle=0" parent="1" vertex="1">
          <mxGeometry x="277" y="60.75" width="342" height="529.5" as="geometry" />
        </mxCell>
        <mxCell id="eqe8sGnafjTdczkgvwpD-45" value="" style="rounded=1;whiteSpace=wrap;html=1;fillColor=none;fontFamily=Times New Roman;fontSize=18;fontStyle=0;dashed=1;dashPattern=12 12;" parent="1" vertex="1">
          <mxGeometry x="680" y="70" width="160" height="530" as="geometry" />
        </mxCell>
        <mxCell id="eqe8sGnafjTdczkgvwpD-32" value="" style="rounded=1;whiteSpace=wrap;html=1;fillColor=default;fontFamily=Times New Roman;fontSize=18;fontStyle=0" parent="1" vertex="1">
          <mxGeometry x="288" y="70.5" width="342" height="529.5" as="geometry" />
        </mxCell>
        <mxCell id="eqe8sGnafjTdczkgvwpD-33" value="" style="rounded=1;whiteSpace=wrap;html=1;fillColor=none;fontFamily=Times New Roman;fontSize=18;fontStyle=0" parent="1" vertex="1">
          <mxGeometry x="10" y="70.5" width="200" height="529.5" as="geometry" />
        </mxCell>
        <mxCell id="eqe8sGnafjTdczkgvwpD-13" style="edgeStyle=entityRelationEdgeStyle;rounded=0;orthogonalLoop=1;jettySize=auto;html=1;entryX=0;entryY=0.5;entryDx=0;entryDy=0;fontFamily=Times New Roman;fontSize=18;fontStyle=0;curved=1;dashed=1;dashPattern=1 1;" parent="1" source="eqe8sGnafjTdczkgvwpD-1" target="eqe8sGnafjTdczkgvwpD-6" edge="1">
          <mxGeometry relative="1" as="geometry" />
        </mxCell>
        <mxCell id="eqe8sGnafjTdczkgvwpD-21" style="edgeStyle=entityRelationEdgeStyle;rounded=0;orthogonalLoop=1;jettySize=auto;html=1;entryX=0;entryY=0.5;entryDx=0;entryDy=0;fontFamily=Times New Roman;fontSize=18;fontStyle=0;curved=1;dashed=1;dashPattern=1 1;" parent="1" source="eqe8sGnafjTdczkgvwpD-1" target="eqe8sGnafjTdczkgvwpD-7" edge="1">
          <mxGeometry relative="1" as="geometry" />
        </mxCell>
        <mxCell id="eqe8sGnafjTdczkgvwpD-22" style="edgeStyle=entityRelationEdgeStyle;rounded=0;orthogonalLoop=1;jettySize=auto;html=1;entryX=0;entryY=0.5;entryDx=0;entryDy=0;fontFamily=Times New Roman;fontSize=18;fontStyle=0;curved=1;dashed=1;dashPattern=1 1;" parent="1" source="eqe8sGnafjTdczkgvwpD-1" target="eqe8sGnafjTdczkgvwpD-8" edge="1">
          <mxGeometry relative="1" as="geometry" />
        </mxCell>
        <mxCell id="eqe8sGnafjTdczkgvwpD-23" style="edgeStyle=entityRelationEdgeStyle;rounded=0;orthogonalLoop=1;jettySize=auto;html=1;entryX=0;entryY=0.5;entryDx=0;entryDy=0;fontFamily=Times New Roman;fontSize=18;fontStyle=0;curved=1;dashed=1;dashPattern=1 1;" parent="1" source="eqe8sGnafjTdczkgvwpD-1" target="eqe8sGnafjTdczkgvwpD-9" edge="1">
          <mxGeometry relative="1" as="geometry" />
        </mxCell>
        <mxCell id="eqe8sGnafjTdczkgvwpD-24" style="edgeStyle=entityRelationEdgeStyle;rounded=0;orthogonalLoop=1;jettySize=auto;html=1;entryX=0;entryY=0.5;entryDx=0;entryDy=0;fontFamily=Times New Roman;fontSize=18;fontStyle=0;curved=1;dashed=1;dashPattern=1 1;" parent="1" source="eqe8sGnafjTdczkgvwpD-1" target="eqe8sGnafjTdczkgvwpD-10" edge="1">
          <mxGeometry relative="1" as="geometry" />
        </mxCell>
        <mxCell id="eqe8sGnafjTdczkgvwpD-25" style="edgeStyle=entityRelationEdgeStyle;rounded=0;orthogonalLoop=1;jettySize=auto;html=1;entryX=0;entryY=0.5;entryDx=0;entryDy=0;fontFamily=Times New Roman;fontSize=18;fontStyle=0;curved=1;dashed=1;dashPattern=1 1;" parent="1" source="eqe8sGnafjTdczkgvwpD-1" target="eqe8sGnafjTdczkgvwpD-11" edge="1">
          <mxGeometry relative="1" as="geometry" />
        </mxCell>
        <mxCell id="eqe8sGnafjTdczkgvwpD-1" value="Business practice 1" style="rounded=1;whiteSpace=wrap;html=1;fontFamily=Times New Roman;fontSize=18;fontStyle=0" parent="1" vertex="1">
          <mxGeometry x="50" y="85.5" width="120" height="60" as="geometry" />
        </mxCell>
        <mxCell id="eqe8sGnafjTdczkgvwpD-2" value="Business practice 2" style="rounded=1;whiteSpace=wrap;html=1;fontFamily=Times New Roman;fontSize=18;fontStyle=0" parent="1" vertex="1">
          <mxGeometry x="50" y="155.5" width="120" height="60" as="geometry" />
        </mxCell>
        <mxCell id="eqe8sGnafjTdczkgvwpD-3" value="Business practice 3" style="rounded=1;whiteSpace=wrap;html=1;fontFamily=Times New Roman;fontSize=18;fontStyle=0" parent="1" vertex="1">
          <mxGeometry x="50" y="225.5" width="120" height="60" as="geometry" />
        </mxCell>
        <mxCell id="eqe8sGnafjTdczkgvwpD-4" value="..." style="rounded=1;whiteSpace=wrap;html=1;fontFamily=Times New Roman;fontSize=18;fontStyle=0" parent="1" vertex="1">
          <mxGeometry x="50" y="295.5" width="120" height="134.5" as="geometry" />
        </mxCell>
        <mxCell id="eqe8sGnafjTdczkgvwpD-5" value="&lt;font style=&quot;font-size: 18px;&quot;&gt;Taxonomy-enabled business practices&lt;/font&gt;" style="text;html=1;align=center;verticalAlign=middle;whiteSpace=wrap;rounded=0;fontFamily=Times New Roman;fontSize=18;fontStyle=1" parent="1" vertex="1">
          <mxGeometry x="30" y="550" width="170" height="30" as="geometry" />
        </mxCell>
        <mxCell id="eqe8sGnafjTdczkgvwpD-6" value="Climate Change Mitigation" style="rounded=1;whiteSpace=wrap;html=1;fontFamily=Times New Roman;fontSize=18;fontStyle=0;fillColor=#d5e8d4;strokeColor=#82b366;" parent="1" vertex="1">
          <mxGeometry x="308" y="85.5" width="140" height="60" as="geometry" />
        </mxCell>
        <mxCell id="eqe8sGnafjTdczkgvwpD-7" value="Climate Change Adaption" style="rounded=1;whiteSpace=wrap;html=1;fontFamily=Times New Roman;fontSize=18;fontStyle=0;fillColor=#d5e8d4;strokeColor=#82b366;" parent="1" vertex="1">
          <mxGeometry x="308" y="155.5" width="140" height="60" as="geometry" />
        </mxCell>
        <mxCell id="eqe8sGnafjTdczkgvwpD-8" value="Water / Marine Protection" style="rounded=1;whiteSpace=wrap;html=1;fontFamily=Times New Roman;fontSize=18;fontStyle=0;fillColor=#d5e8d4;strokeColor=#82b366;" parent="1" vertex="1">
          <mxGeometry x="308" y="225.5" width="140" height="60" as="geometry" />
        </mxCell>
        <mxCell id="eqe8sGnafjTdczkgvwpD-9" value="Circular Economy Transition" style="rounded=1;whiteSpace=wrap;html=1;fontFamily=Times New Roman;fontSize=18;fontStyle=0;fillColor=#d5e8d4;strokeColor=#82b366;" parent="1" vertex="1">
          <mxGeometry x="308" y="295.5" width="140" height="60" as="geometry" />
        </mxCell>
        <mxCell id="eqe8sGnafjTdczkgvwpD-10" value="Pollution Prevention" style="rounded=1;whiteSpace=wrap;html=1;fontFamily=Times New Roman;fontSize=18;fontStyle=0;fillColor=#d5e8d4;strokeColor=#82b366;" parent="1" vertex="1">
          <mxGeometry x="308" y="365.5" width="140" height="60" as="geometry" />
        </mxCell>
        <mxCell id="eqe8sGnafjTdczkgvwpD-11" value="Biodiversity Protection" style="rounded=1;whiteSpace=wrap;html=1;fontFamily=Times New Roman;fontSize=18;fontStyle=0;fillColor=#d5e8d4;strokeColor=#82b366;" parent="1" vertex="1">
          <mxGeometry x="308" y="440" width="140" height="60" as="geometry" />
        </mxCell>
        <mxCell id="eqe8sGnafjTdczkgvwpD-38" style="edgeStyle=entityRelationEdgeStyle;rounded=0;orthogonalLoop=1;jettySize=auto;html=1;entryX=0;entryY=0.5;entryDx=0;entryDy=0;fontFamily=Times New Roman;fontSize=18;fontStyle=0;curved=1;dashed=1;dashPattern=1 1;" parent="1" source="eqe8sGnafjTdczkgvwpD-26" target="eqe8sGnafjTdczkgvwpD-37" edge="1">
          <mxGeometry relative="1" as="geometry" />
        </mxCell>
        <mxCell id="eqe8sGnafjTdczkgvwpD-26" value="Technical Screening Criteria" style="text;html=1;align=center;verticalAlign=middle;whiteSpace=wrap;rounded=0;fontFamily=Times New Roman;fontSize=18;fontStyle=0" parent="1" vertex="1">
          <mxGeometry x="458" y="100.5" width="140" height="30" as="geometry" />
        </mxCell>
        <mxCell id="eqe8sGnafjTdczkgvwpD-39" style="edgeStyle=entityRelationEdgeStyle;rounded=0;orthogonalLoop=1;jettySize=auto;html=1;entryX=0;entryY=0.5;entryDx=0;entryDy=0;fontFamily=Times New Roman;fontSize=18;fontStyle=0;curved=1;dashed=1;dashPattern=1 1;" parent="1" source="eqe8sGnafjTdczkgvwpD-27" target="eqe8sGnafjTdczkgvwpD-37" edge="1">
          <mxGeometry relative="1" as="geometry" />
        </mxCell>
        <mxCell id="eqe8sGnafjTdczkgvwpD-27" value="Technical Screening Criteria" style="text;html=1;align=center;verticalAlign=middle;whiteSpace=wrap;rounded=0;fontFamily=Times New Roman;fontSize=18;fontStyle=0" parent="1" vertex="1">
          <mxGeometry x="458" y="170.5" width="140" height="30" as="geometry" />
        </mxCell>
        <mxCell id="eqe8sGnafjTdczkgvwpD-40" style="edgeStyle=entityRelationEdgeStyle;rounded=0;orthogonalLoop=1;jettySize=auto;html=1;entryX=0;entryY=0.5;entryDx=0;entryDy=0;fontFamily=Times New Roman;fontSize=18;fontStyle=0;curved=1;dashed=1;dashPattern=1 1;" parent="1" source="eqe8sGnafjTdczkgvwpD-28" target="eqe8sGnafjTdczkgvwpD-37" edge="1">
          <mxGeometry relative="1" as="geometry" />
        </mxCell>
        <mxCell id="eqe8sGnafjTdczkgvwpD-28" value="Technical Screening Criteria" style="text;html=1;align=center;verticalAlign=middle;whiteSpace=wrap;rounded=0;fontFamily=Times New Roman;fontSize=18;fontStyle=0" parent="1" vertex="1">
          <mxGeometry x="458" y="240.5" width="140" height="30" as="geometry" />
        </mxCell>
        <mxCell id="eqe8sGnafjTdczkgvwpD-41" style="edgeStyle=entityRelationEdgeStyle;rounded=0;orthogonalLoop=1;jettySize=auto;html=1;entryX=0;entryY=0.5;entryDx=0;entryDy=0;fontFamily=Times New Roman;fontSize=18;fontStyle=0;curved=1;dashed=1;dashPattern=1 1;" parent="1" source="eqe8sGnafjTdczkgvwpD-29" target="eqe8sGnafjTdczkgvwpD-37" edge="1">
          <mxGeometry relative="1" as="geometry" />
        </mxCell>
        <mxCell id="eqe8sGnafjTdczkgvwpD-29" value="Technical Screening Criteria" style="text;html=1;align=center;verticalAlign=middle;whiteSpace=wrap;rounded=0;fontFamily=Times New Roman;fontSize=18;fontStyle=0" parent="1" vertex="1">
          <mxGeometry x="458" y="310.5" width="140" height="30" as="geometry" />
        </mxCell>
        <mxCell id="eqe8sGnafjTdczkgvwpD-42" style="edgeStyle=entityRelationEdgeStyle;rounded=0;orthogonalLoop=1;jettySize=auto;html=1;entryX=0;entryY=0.5;entryDx=0;entryDy=0;fontFamily=Times New Roman;fontSize=18;fontStyle=0;curved=1;dashed=1;dashPattern=1 1;" parent="1" source="eqe8sGnafjTdczkgvwpD-30" target="eqe8sGnafjTdczkgvwpD-37" edge="1">
          <mxGeometry relative="1" as="geometry" />
        </mxCell>
        <mxCell id="eqe8sGnafjTdczkgvwpD-30" value="Technical Screening Criteria" style="text;html=1;align=center;verticalAlign=middle;whiteSpace=wrap;rounded=0;fontFamily=Times New Roman;fontSize=18;fontStyle=0" parent="1" vertex="1">
          <mxGeometry x="458" y="380.5" width="140" height="30" as="geometry" />
        </mxCell>
        <mxCell id="eqe8sGnafjTdczkgvwpD-43" style="edgeStyle=entityRelationEdgeStyle;rounded=0;orthogonalLoop=1;jettySize=auto;html=1;entryX=0;entryY=0.5;entryDx=0;entryDy=0;fontFamily=Times New Roman;fontSize=18;fontStyle=0;curved=1;dashed=1;dashPattern=1 1;" parent="1" source="eqe8sGnafjTdczkgvwpD-31" target="eqe8sGnafjTdczkgvwpD-37" edge="1">
          <mxGeometry relative="1" as="geometry" />
        </mxCell>
        <mxCell id="eqe8sGnafjTdczkgvwpD-31" value="Technical Screening Criteria" style="text;html=1;align=center;verticalAlign=middle;whiteSpace=wrap;rounded=0;fontFamily=Times New Roman;fontSize=18;fontStyle=0" parent="1" vertex="1">
          <mxGeometry x="458" y="455" width="140" height="30" as="geometry" />
        </mxCell>
        <mxCell id="eqe8sGnafjTdczkgvwpD-35" value="Business practice&amp;nbsp;&lt;i&gt;n&lt;/i&gt;" style="rounded=1;whiteSpace=wrap;html=1;fontFamily=Times New Roman;fontSize=18;fontStyle=0" parent="1" vertex="1">
          <mxGeometry x="50" y="440" width="120" height="60" as="geometry" />
        </mxCell>
        <mxCell id="eqe8sGnafjTdczkgvwpD-36" value="&lt;font style=&quot;font-size: 18px;&quot;&gt;Environmental objectives and technical screening criteria&lt;/font&gt;" style="text;html=1;align=center;verticalAlign=middle;whiteSpace=wrap;rounded=0;fontFamily=Times New Roman;fontSize=18;fontStyle=1" parent="1" vertex="1">
          <mxGeometry x="319" y="555" width="280" height="30" as="geometry" />
        </mxCell>
        <mxCell id="eqe8sGnafjTdczkgvwpD-37" value="Business practice 1" style="rounded=1;whiteSpace=wrap;html=1;fontFamily=Times New Roman;fontSize=18;fontStyle=0;fillColor=#dae8fc;strokeColor=#6c8ebf;" parent="1" vertex="1">
          <mxGeometry x="700" y="260.5" width="120" height="60" as="geometry" />
        </mxCell>
        <mxCell id="eqe8sGnafjTdczkgvwpD-44" value="&lt;font style=&quot;font-size: 18px;&quot;&gt;According to Criteria: Significant Contribution to&amp;nbsp; &amp;gt;= 1 Objective,&lt;br style=&quot;font-size: 18px;&quot;&gt;No Significant Harm to All Others&lt;/font&gt;" style="text;html=1;align=center;verticalAlign=middle;whiteSpace=wrap;rounded=0;fontFamily=Times New Roman;fontSize=18;fontStyle=0" parent="1" vertex="1">
          <mxGeometry x="679.5" y="140.5" width="160" height="30" as="geometry" />
        </mxCell>
        <mxCell id="eqe8sGnafjTdczkgvwpD-46" value="&lt;font style=&quot;font-size: 18px;&quot;&gt;&lt;b&gt;Taxonomy-aligned business practices&lt;/b&gt;&lt;/font&gt;" style="text;html=1;align=center;verticalAlign=middle;whiteSpace=wrap;rounded=0;fontFamily=Times New Roman;fontSize=18;fontStyle=0" parent="1" vertex="1">
          <mxGeometry x="680" y="550" width="160" height="30" as="geometry" />
        </mxCell>
        <mxCell id="dTdor2lt4ldD6Rn4XxEs-1" value="..." style="rounded=1;whiteSpace=wrap;html=1;fontFamily=Times New Roman;fontSize=18;fontStyle=0;fillColor=#dae8fc;strokeColor=#6c8ebf;" parent="1" vertex="1">
          <mxGeometry x="700" y="328.25" width="120" height="134.5" as="geometry" />
        </mxCell>
      </root>
    </mxGraphModel>
  </diagram>
</mxfile>
